<svg width="104" height="104" viewBox="0 0 104 104" fill="none" xmlns="http://www.w3.org/2000/svg">
<path d="M52 0C80.7188 0 104 23.2812 104 52C104 80.7188 80.7188 104 52 104C23.2812 104 0 80.7188 0 52C0 23.2812 23.2812 0 52 0ZM52 32.5C38.3586 32.5 27.3 43.5586 27.3 57.2C27.3 70.8414 38.3586 81.9 52 81.9C65.6414 81.9 76.7 70.8414 76.7 57.2C76.7 43.5586 65.6414 32.5 52 32.5Z" fill="black"/>
<path d="M52 70.2C59.1797 70.2 65 64.3797 65 57.2C65 50.0202 59.1797 44.2 52 44.2C44.8203 44.2 39 50.0202 39 57.2C39 64.3797 44.8203 70.2 52 70.2Z" fill="#FF8A80"/>
</svg>
