<svg width="126" height="81" viewBox="0 0 126 81" fill="none" xmlns="http://www.w3.org/2000/svg">
<path d="M103.5 54.0002H22.5001C15.0442 54.0002 9 60.0444 9 67.5003C9 74.9562 15.0442 81.0004 22.5001 81.0004H103.5C110.956 81.0004 117.001 74.9562 117.001 67.5003C117.001 60.0444 110.956 54.0002 103.5 54.0002Z" fill="black"/>
<path d="M112.501 0H13.5001C6.04419 0 0 6.04419 0 13.5001C0 20.956 6.04419 27.0001 13.5001 27.0001H112.501C119.956 27.0001 126.001 20.956 126.001 13.5001C126.001 6.04419 119.956 0 112.501 0Z" fill="black"/>
<path d="M63.0005 53.1004C74.9299 53.1004 84.6006 43.4297 84.6006 31.5003C84.6006 19.5708 74.9299 9.90015 63.0005 9.90015C51.0711 9.90015 41.4004 19.5708 41.4004 31.5003C41.4004 43.4297 51.0711 53.1004 63.0005 53.1004Z" fill="#FF8A80"/>
</svg>
