<svg width="248" height="248" viewBox="0 0 248 248" fill="none" xmlns="http://www.w3.org/2000/svg">
<mask id="path-1-inside-1_181_1811" fill="white">
<path d="M42.4264 81.3172C61.9526 61.791 93.6109 61.791 113.137 81.3172L123.744 91.9238L134.35 81.3172C153.876 61.791 185.535 61.791 205.061 81.3172L212.132 88.3883C231.658 107.915 231.658 139.573 212.132 159.099L123.744 247.487L35.3553 159.099C15.8291 139.573 15.8291 107.915 35.3553 88.3883L42.4264 81.3172Z"/>
</mask>
<path d="M113.137 81.3172L121.622 72.832V72.832L113.137 81.3172ZM123.744 91.9238L115.258 100.409L123.744 108.894L132.229 100.409L123.744 91.9238ZM205.061 81.3172L213.546 72.832V72.832L205.061 81.3172ZM212.132 159.099L220.617 167.584V167.584L212.132 159.099ZM123.744 247.487L115.258 255.973L123.744 264.458L132.229 255.973L123.744 247.487ZM35.3553 88.3883L26.8701 79.903V79.903L35.3553 88.3883ZM42.4264 81.3172L50.9117 89.8025C65.7516 74.9626 89.8119 74.9626 104.652 89.8025L113.137 81.3172L121.622 72.832C97.4099 48.6195 58.1536 48.6195 33.9411 72.832L42.4264 81.3172ZM113.137 81.3172L104.652 89.8025L115.258 100.409L123.744 91.9238L132.229 83.4386L121.622 72.832L113.137 81.3172ZM123.744 91.9238L132.229 100.409L142.836 89.8025L134.35 81.3172L125.865 72.832L115.258 83.4386L123.744 91.9238ZM134.35 81.3172L142.836 89.8025C157.675 74.9626 181.736 74.9626 196.576 89.8025L205.061 81.3172L213.546 72.832C189.334 48.6195 150.078 48.6195 125.865 72.832L134.35 81.3172ZM205.061 81.3172L196.576 89.8025L203.647 96.8736L212.132 88.3883L220.617 79.903L213.546 72.832L205.061 81.3172ZM212.132 88.3883L203.647 96.8736C218.487 111.714 218.487 135.774 203.647 150.614L212.132 159.099L220.617 167.584C244.83 143.372 244.83 104.116 220.617 79.903L212.132 88.3883ZM212.132 159.099L203.647 150.614L115.258 239.002L123.744 247.487L132.229 255.973L220.617 167.584L212.132 159.099ZM123.744 247.487L132.229 239.002L43.8406 150.614L35.3553 159.099L26.8701 167.584L115.258 255.973L123.744 247.487ZM35.3553 159.099L43.8406 150.614C29.0007 135.774 29.0007 111.714 43.8406 96.8736L35.3553 88.3883L26.8701 79.903C2.65755 104.116 2.65755 143.372 26.8701 167.584L35.3553 159.099ZM35.3553 88.3883L43.8406 96.8736L50.9117 89.8025L42.4264 81.3172L33.9411 72.832L26.8701 79.903L35.3553 88.3883Z" fill="#FF8A80" mask="url(#path-1-inside-1_181_1811)"/>
</svg>
