<svg width="248" height="248" viewBox="0 0 248 248" fill="none" xmlns="http://www.w3.org/2000/svg">
<mask id="path-1-inside-1_181_1809" fill="white">
<path d="M42.4264 81.3172C61.9526 61.791 93.6109 61.791 113.137 81.3172L123.744 91.9238L134.35 81.3172C153.876 61.791 185.535 61.791 205.061 81.3172L212.132 88.3883C231.658 107.915 231.658 139.573 212.132 159.099L123.744 247.487L35.3553 159.099C15.8291 139.573 15.8291 107.915 35.3553 88.3883L42.4264 81.3172Z"/>
</mask>
<path d="M113.137 81.3172L124.451 70.0035V70.0035L113.137 81.3172ZM123.744 91.9238L112.43 103.238L123.744 114.551L135.057 103.238L123.744 91.9238ZM205.061 81.3172L216.375 70.0035V70.0035L205.061 81.3172ZM212.132 159.099L223.446 170.413V170.413L212.132 159.099ZM123.744 247.487L112.43 258.801L123.744 270.115L135.057 258.801L123.744 247.487ZM35.3553 88.3883L24.0416 77.0746V77.0746L35.3553 88.3883ZM42.4264 81.3172L53.7401 92.631C67.0179 79.3531 88.5456 79.3531 101.823 92.631L113.137 81.3172L124.451 70.0035C98.6762 44.2289 56.8873 44.2289 31.1127 70.0035L42.4264 81.3172ZM113.137 81.3172L101.823 92.631L112.43 103.238L123.744 91.9238L135.057 80.6101L124.451 70.0035L113.137 81.3172ZM123.744 91.9238L135.057 103.238L145.664 92.631L134.35 81.3172L123.037 70.0035L112.43 80.6101L123.744 91.9238ZM134.35 81.3172L145.664 92.631C158.942 79.3531 180.469 79.3531 193.747 92.631L205.061 81.3172L216.375 70.0035C190.6 44.2289 148.811 44.2289 123.037 70.0035L134.35 81.3172ZM205.061 81.3172L193.747 92.631L200.818 99.702L212.132 88.3883L223.446 77.0746L216.375 70.0035L205.061 81.3172ZM212.132 88.3883L200.818 99.702C214.096 112.98 214.096 134.507 200.818 147.785L212.132 159.099L223.446 170.413C249.22 144.638 249.22 102.849 223.446 77.0746L212.132 88.3883ZM212.132 159.099L200.818 147.785L112.43 236.174L123.744 247.487L135.057 258.801L223.446 170.413L212.132 159.099ZM123.744 247.487L135.057 236.174L46.669 147.785L35.3553 159.099L24.0416 170.413L112.43 258.801L123.744 247.487ZM35.3553 159.099L46.669 147.785C33.3912 134.507 33.3912 112.98 46.669 99.702L35.3553 88.3883L24.0416 77.0746C-1.73297 102.849 -1.73297 144.638 24.0416 170.413L35.3553 159.099ZM35.3553 88.3883L46.669 99.702L53.7401 92.631L42.4264 81.3172L31.1127 70.0035L24.0416 77.0746L35.3553 88.3883Z" fill="black" mask="url(#path-1-inside-1_181_1809)"/>
</svg>
