<svg width="319" height="319" viewBox="0 0 319 319" fill="none" xmlns="http://www.w3.org/2000/svg">
<path d="M159.5 0L190.629 84.347L272.284 46.7165L234.653 128.371L319 159.5L234.653 190.629L272.284 272.284L190.629 234.653L159.5 319L128.371 234.653L46.7165 272.284L84.347 190.629L0 159.5L84.347 128.371L46.7165 46.7165L128.371 84.347L159.5 0Z" fill="black"/>
<path d="M159 118C174.464 118 187 130.536 187 146C187 151.1 185.635 155.881 183.253 160C185.635 164.119 187 168.9 187 174C187 189.464 174.464 202 159 202C143.536 202 131 189.464 131 174C131 168.9 132.364 164.118 134.746 160C132.364 155.882 131 151.1 131 146C131 130.536 143.536 118 159 118ZM176.774 167.635C171.94 171.612 165.749 174 159 174C152.825 174 147.118 171.999 142.488 168.613C142.097 170.084 141.889 171.628 141.889 173.222C141.889 183.101 149.898 191.11 159.777 191.11C169.657 191.11 177.666 183.101 177.666 173.222C177.666 171.27 177.352 169.393 176.774 167.635ZM159.777 155.333C155.567 155.333 151.697 156.788 148.642 159.222C151.697 161.655 155.567 163.11 159.777 163.11C163.987 163.11 167.857 161.655 170.912 159.222C167.857 156.788 163.987 155.333 159.777 155.333ZM159.777 127.333C149.898 127.333 141.889 135.342 141.889 145.222C141.889 147.283 142.238 149.262 142.879 151.104C147.437 147.889 152.998 146 159 146C165.545 146 171.565 148.245 176.332 152.008C177.191 149.915 177.666 147.624 177.666 145.222C177.666 135.342 169.657 127.333 159.777 127.333Z" fill="white"/>
</svg>
