<svg width="111" height="96" viewBox="0 0 111 96" fill="none" xmlns="http://www.w3.org/2000/svg">
<path d="M0 27.5976C0 16.8388 8.72183 8.11694 19.4807 8.11694C30.2395 8.11694 38.9614 16.8388 38.9614 27.5976V76.2993C38.9614 87.0582 30.2395 95.78 19.4807 95.78C8.72183 95.78 0 87.0582 0 76.2993V27.5976Z" fill="black"/>
<path d="M35.7144 19.4807C35.7144 8.72183 44.4362 0 55.195 0C65.9539 0 74.6757 8.72183 74.6757 19.4807V68.1824C74.6757 78.9413 65.9539 87.6631 55.195 87.6631C44.4362 87.6631 35.7144 78.9413 35.7144 68.1824V19.4807Z" fill="#FF8A80"/>
<path d="M71.4292 27.5976C71.4292 16.8388 80.151 8.11694 90.9099 8.11694C101.669 8.11694 110.391 16.8388 110.391 27.5976V76.2993C110.391 87.0582 101.669 95.78 90.9099 95.78C80.151 95.78 71.4292 87.0582 71.4292 76.2993V27.5976Z" fill="black"/>
</svg>
