<svg width="108" height="95" viewBox="0 0 108 95" fill="none" xmlns="http://www.w3.org/2000/svg">
<path d="M25.9745 46.1031C38.0549 46.1031 47.8479 36.0953 47.8479 23.7501C47.8479 11.405 38.0549 1.39722 25.9745 1.39722C13.8941 1.39722 4.10107 11.405 4.10107 23.7501C4.10107 36.0953 13.8941 46.1031 25.9745 46.1031Z" fill="black"/>
<path d="M66.9874 39.1176C77.5577 39.1176 86.1266 30.3609 86.1266 19.5588C86.1266 8.75678 77.5577 0 66.9874 0C56.4171 0 47.8481 8.75678 47.8481 19.5588C47.8481 30.3609 56.4171 39.1176 66.9874 39.1176Z" fill="black"/>
<path d="M87.4936 62.8676C98.819 62.8676 108 53.4853 108 41.9117C108 30.3381 98.819 20.9558 87.4936 20.9558C76.1683 20.9558 66.9873 30.3381 66.9873 41.9117C66.9873 53.4853 76.1683 62.8676 87.4936 62.8676Z" fill="black"/>
<path d="M46.4809 75.4412C61.5814 75.4412 73.8227 62.9315 73.8227 47.5C73.8227 32.0685 61.5814 19.5588 46.4809 19.5588C31.3805 19.5588 19.1392 32.0685 19.1392 47.5C19.1392 62.9315 31.3805 75.4412 46.4809 75.4412Z" fill="#FF8A80"/>
<path d="M19.1392 78.2353C29.7096 78.2353 38.2785 69.4785 38.2785 58.6765C38.2785 47.8745 29.7096 39.1177 19.1392 39.1177C8.56893 39.1177 0 47.8745 0 58.6765C0 69.4785 8.56893 78.2353 19.1392 78.2353Z" fill="black"/>
<path d="M69.7216 95.0001C81.8019 95.0001 91.595 84.9923 91.595 72.6471C91.595 60.3019 81.8019 50.2942 69.7216 50.2942C57.6412 50.2942 47.8481 60.3019 47.8481 72.6471C47.8481 84.9923 57.6412 95.0001 69.7216 95.0001Z" fill="black"/>
</svg>
